<?xml version="1.0" encoding="UTF-8"?><svg id="a" xmlns="http://www.w3.org/2000/svg" viewBox="0 0 170.8 123.08"><defs><style>.b{fill:#00aeef;stroke:#00aeef;}.c{fill:#231f20;}</style></defs><path class="b" d="M102.33,38.41c-.62-3.89-2.78-14.01-11.35-22.69C78.41,2.98,62.02,3.48,58.88,3.65c-19.64,1.02-31.04,15.43-33.56,18.83-13.49,18.21-8.22,39.04-7.48,41.76-.33,1.81-4.38,26.19,13.04,42.49,17.05,15.96,43.54,13.76,58.42,2.9,3.78-2.76,6.43-5.8,8.21-8.21,2.82-7.28,7.77-17.14,16.79-26.03,17.88-17.6,37.07-16.87,44.77-33.12,2.28-4.81,4.11-12.3,1.45-23.66-1.11-1.66-10.33-14.96-24.83-15.33-15.49-.4-31.3,14.08-33.35,35.13Z"/><g><path class="c" d="M100.55,.06l2.69,39.99h-2.69c-3.59-11.97-8.71-20.59-15.36-25.85-6.65-5.26-14.63-7.89-23.94-7.89-7.81,0-14.87,1.98-21.17,5.94-6.3,3.96-11.27,10.28-14.88,18.96-3.61,8.68-5.42,19.46-5.42,32.36,0,10.64,1.7,19.87,5.12,27.68,3.41,7.81,8.55,13.79,15.4,17.96s14.67,6.25,23.47,6.25c7.63,0,14.37-1.63,20.21-4.9,5.84-3.27,12.26-9.76,19.26-19.48l2.69,1.74c-5.9,10.47-12.78,18.13-20.65,22.99-7.87,4.86-17.21,7.29-28.02,7.29-19.49,0-34.59-7.23-45.29-21.69C3.99,90.63,0,77.96,0,63.39c0-11.74,2.63-22.53,7.89-32.36,5.26-9.83,12.5-17.45,21.73-22.86C38.85,2.76,48.93,.06,59.86,.06c8.5,0,16.89,2.08,25.16,6.25,2.43,1.27,4.16,1.91,5.21,1.91,1.56,0,2.92-.55,4.08-1.65,1.5-1.56,2.57-3.73,3.21-6.51h3.04Z"/><path class="c" d="M103.65,0c.58,2.72,1.34,4.53,2.3,5.42,.95,.9,2.18,1.34,3.69,1.34,1.33,0,3.61-.72,6.85-2.17,7-3.07,13.62-4.6,19.87-4.6,10.01,0,18.25,3.05,24.73,9.15,6.48,6.1,9.72,13.37,9.72,21.82,0,4.86-1.1,9.31-3.3,13.36-2.2,4.05-5.42,7.75-9.67,11.1-4.25,3.35-11.41,7.85-21.47,13.49-10.06,5.64-16.22,9.33-18.48,11.06-3.35,2.55-5.83,5.29-7.42,8.24-1.59,2.95-2.39,5.87-2.39,8.76,0,5.21,2.1,9.72,6.29,13.53s9.9,5.73,17.13,5.73c6.25,0,11.99-1.39,17.22-4.16s9.12-6.26,11.67-10.45c2.54-4.19,4.57-10.51,6.07-18.96h3.21v40.34h-3.21c-.4-2.72-1.03-4.51-1.87-5.38s-1.98-1.3-3.43-1.3-5.08,.91-10.71,2.73-9.36,2.88-11.15,3.17c-3.01,.52-6.22,.78-9.63,.78-10.87,0-19.77-3.22-26.68-9.67-6.91-6.45-10.37-14.13-10.37-23.03,0-4.68,1.08-9.17,3.25-13.45,2.17-4.28,5.26-7.99,9.28-11.15,4.02-3.15,11.52-7.68,22.51-13.58,13.48-7.23,22.01-13.01,25.59-17.35,2.49-2.95,3.73-6.22,3.73-9.8,0-4.68-1.97-8.86-5.9-12.54-3.93-3.67-8.91-5.51-14.92-5.51-5.32,0-10.47,1.36-15.44,4.08-4.97,2.72-8.81,6.39-11.5,11.02-2.69,4.63-4.55,10.84-5.6,18.65h-3.21V0h3.21Z"/></g></svg>