<?xml version="1.0" standalone="no"?>
<!DOCTYPE svg PUBLIC "-//W3C//DTD SVG 20010904//EN"
 "http://www.w3.org/TR/2001/REC-SVG-20010904/DTD/svg10.dtd">
<svg version="1.0" xmlns="http://www.w3.org/2000/svg"
 width="1368.000000pt" height="1368.000000pt" viewBox="0 0 1368.000000 1368.000000"
 preserveAspectRatio="xMidYMid meet">
<metadata>
Created by potrace 1.14, written by Peter Selinger 2001-2017
</metadata>
<g transform="translate(0.000000,1368.000000) scale(0.100000,-0.100000)"
fill="#000000" stroke="none">
<path d="M4585 11759 c-837 -32 -1626 -275 -2335 -719 -538 -337 -1012 -801
-1364 -1333 -128 -194 -211 -340 -325 -567 -305 -611 -473 -1222 -543 -1970
-16 -181 -17 -775 0 -960 63 -700 232 -1316 512 -1865 117 -229 172 -324 303
-519 874 -1299 2178 -1947 3852 -1913 365 8 642 38 945 103 784 168 1465 558
2017 1155 56 61 104 110 108 110 3 0 36 -44 72 -98 197 -295 489 -583 798
-785 366 -240 780 -386 1290 -455 189 -25 778 -25 990 0 290 35 552 99 1010
247 502 162 825 249 961 257 76 5 103 2 161 -16 153 -46 228 -161 279 -423
l17 -88 128 0 129 0 0 1615 0 1615 -124 0 c-69 0 -127 -4 -130 -9 -3 -4 -23
-98 -45 -207 -96 -482 -240 -930 -388 -1204 -168 -310 -411 -570 -736 -786
-509 -338 -1089 -500 -1722 -481 -589 18 -1015 183 -1350 521 -209 210 -329
415 -397 676 -40 153 -50 390 -24 551 55 335 239 666 522 939 189 182 356 302
754 540 186 111 349 205 1180 678 994 566 1526 931 1856 1274 374 389 577 779
665 1275 31 172 34 545 6 723 -40 250 -114 486 -219 692 -236 466 -656 883
-1138 1131 -284 145 -585 234 -955 284 -185 24 -641 24 -815 0 -405 -57 -725
-147 -1155 -327 -393 -165 -500 -196 -634 -188 -212 14 -333 137 -407 413 -14
55 -28 106 -30 113 -3 9 -60 12 -244 12 -277 0 -239 17 -285 -129 -63 -202
-171 -369 -292 -452 -72 -50 -146 -72 -243 -72 -109 -1 -152 14 -440 152 -427
206 -740 318 -1104 395 -385 83 -712 111 -1111 95z m790 -538 c343 -40 598
-116 947 -284 126 -61 341 -195 473 -296 169 -129 376 -345 537 -561 72 -96
254 -393 313 -510 116 -232 286 -639 319 -765 8 -33 27 -93 41 -134 14 -41 25
-96 25 -123 l0 -48 140 0 140 0 0 25 c0 53 63 389 105 560 53 219 140 492 203
640 51 121 185 361 256 458 102 141 292 341 441 462 62 51 275 190 367 239
112 60 316 148 452 195 456 157 963 171 1366 38 109 -35 306 -133 412 -204 89
-58 310 -272 378 -364 182 -245 272 -501 272 -779 0 -249 -63 -443 -220 -680
-120 -180 -409 -436 -775 -686 -234 -159 -609 -393 -767 -478 -41 -22 -139
-77 -218 -123 -78 -45 -183 -103 -233 -129 -51 -25 -157 -83 -238 -128 -80
-46 -193 -108 -251 -138 -58 -30 -187 -103 -288 -161 -100 -59 -201 -116 -225
-128 -23 -12 -124 -73 -225 -135 -100 -63 -185 -114 -189 -114 -14 0 -435
-289 -518 -356 -343 -275 -572 -552 -743 -899 -194 -393 -256 -655 -256 -1085
0 -321 31 -530 116 -779 l43 -123 -175 -172 c-238 -233 -443 -397 -635 -506
-368 -211 -743 -334 -1211 -397 -164 -22 -692 -25 -859 -5 -330 40 -626 110
-930 220 -213 77 -522 248 -790 438 -121 85 -326 281 -485 464 -246 282 -540
838 -644 1218 -13 48 -40 144 -59 214 -143 511 -208 1103 -193 1763 11 509 47
899 122 1305 39 212 141 621 195 782 56 170 209 534 276 658 178 331 375 604
583 809 152 150 245 226 417 339 287 188 632 336 974 416 88 21 305 51 509 70
111 10 542 -4 705 -23z"/>
</g>
</svg>
